<?xml version="1.0" standalone="no"?>
<!DOCTYPE svg PUBLIC "-//W3C//DTD SVG 20010904//EN"
 "http://www.w3.org/TR/2001/REC-SVG-20010904/DTD/svg10.dtd">
<svg version="1.0" xmlns="http://www.w3.org/2000/svg"
 width="2000.000000pt" height="1500.000000pt" viewBox="0 0 2000.000000 1500.000000"
 preserveAspectRatio="xMidYMid meet">

<g transform="translate(0.000000,1500.000000) scale(0.100000,-0.100000)"
fill="#000000" stroke="none">
<path d="M6563 7798 c4 -999 3 -970 57 -1179 24 -95 73 -214 122 -297 45 -77
179 -209 258 -255 80 -46 217 -91 328 -107 126 -19 405 -8 507 19 105 28 245
98 321 160 157 128 271 352 331 651 15 75 17 191 20 1013 l4 927 -211 0 -210
0 0 -887 c0 -499 -5 -921 -10 -963 -40 -316 -153 -475 -380 -531 -89 -22 -271
-18 -356 9 -160 49 -261 155 -313 326 -54 177 -54 183 -58 1149 l-4 897 -205
0 -205 0 4 -932z"/>
<path d="M8900 7355 l0 -1375 205 0 205 0 0 520 0 520 208 0 207 0 275 -518
275 -517 238 -3 c130 -1 237 0 237 2 0 3 -146 257 -325 566 -179 309 -325 563
-325 565 0 1 10 5 23 9 45 11 178 98 242 157 105 99 179 226 221 384 26 98 26
371 0 465 -69 252 -254 435 -531 524 -189 61 -351 76 -801 76 l-354 0 0 -1375z
m784 1025 c253 -25 417 -113 486 -263 92 -196 41 -485 -107 -616 -59 -53 -148
-98 -240 -122 -63 -17 -120 -22 -295 -26 l-218 -6 0 522 0 521 138 0 c75 0
182 -5 236 -10z"/>
<path d="M10120 5550 c-195 -20 -351 -65 -525 -150 -366 -180 -617 -507 -707
-923 -19 -87 -22 -133 -22 -312 0 -181 3 -225 23 -315 77 -358 247 -635 512
-835 278 -209 624 -304 1005 -275 356 27 637 136 831 323 l63 60 0 539 0 538
-485 0 -485 0 0 -190 0 -190 280 0 280 0 0 -269 0 -269 -47 -30 c-81 -52 -175
-91 -274 -114 -80 -19 -123 -22 -284 -22 -178 0 -195 2 -278 27 -381 118 -626
417 -692 847 -81 524 167 985 610 1137 142 49 361 65 560 43 157 -18 315 -70
414 -135 30 -20 57 -32 61 -28 4 4 42 82 84 172 59 126 74 166 64 173 -118 80
-323 152 -518 182 -122 19 -361 27 -470 16z"/>
<path d="M6921 4193 c-349 -731 -645 -1349 -658 -1375 l-23 -48 232 0 233 0
117 268 116 267 633 0 634 0 116 -265 116 -265 236 -3 c130 -1 237 1 237 5 0
5 -296 623 -657 1376 -552 1147 -661 1367 -678 1367 -17 0 -121 -212 -654
-1327z m747 332 c44 -104 144 -332 221 -505 78 -173 141 -320 141 -327 0 -10
-91 -13 -460 -13 -253 0 -460 2 -460 5 0 2 80 184 178 402 98 219 203 453 232
521 30 67 57 119 61 115 4 -5 43 -93 87 -198z"/>
<path d="M11610 4147 l0 -1377 660 0 660 0 0 185 0 185 -460 0 -460 0 0 440 0
440 320 0 320 0 0 185 0 185 -320 0 -320 0 2 383 3 382 393 3 392 2 0 175 0
175 -257 0 c-142 0 -410 3 -595 7 l-338 6 0 -1376z"/>
<path d="M13190 4145 l0 -1375 55 0 55 0 0 1338 0 1339 -31 36 c-20 23 -40 37
-55 37 l-24 0 0 -1375z"/>
<path d="M15507 5513 c-4 -3 -7 -84 -7 -180 l0 -173 168 0 c92 0 251 -3 355
-7 l187 -6 0 -1189 0 -1188 205 0 205 0 0 1190 0 1190 355 0 355 0 0 185 0
185 -908 0 c-500 0 -912 -3 -915 -7z"/>
<path d="M14852 4615 c2 -492 2 -895 2 -895 -1 0 -156 172 -345 383 -796 885
-1140 1267 -1144 1267 -3 0 -5 -585 -5 -1300 l0 -1300 121 0 120 0 -3 890 c-2
490 0 889 3 888 3 -2 152 -165 330 -363 1294 -1435 1271 -1410 1300 -1413 l29
-3 0 1370 0 1371 -206 0 -205 0 3 -895z"/>
</g>
</svg>
